<svg xmlns="http://www.w3.org/2000/svg" viewBox="0 0 640 360" role="img" aria-label="Operational Data: Unlocking AI Value from What You Already Have">
  <defs>
    <linearGradient id="bg" x1="0" y1="0" x2="1" y2="1">
      <stop offset="0%" stop-color="#060d06"/>
      <stop offset="100%" stop-color="#080f08"/>
    </linearGradient>
    <linearGradient id="accent" x1="0" y1="0" x2="1" y2="0">
      <stop offset="0%" stop-color="#10b981"/>
      <stop offset="100%" stop-color="#84cc16"/>
    </linearGradient>
    <linearGradient id="titleGrad" x1="0" y1="0" x2="1" y2="0">
      <stop offset="0%" stop-color="#ffffff"/>
      <stop offset="60%" stop-color="#d1fae5"/>
      <stop offset="100%" stop-color="#6ee7b7"/>
    </linearGradient>
    <radialGradient id="glow" cx="80%" cy="35%" r="55%">
      <stop offset="0%" stop-color="#10b981" stop-opacity="0.15"/>
      <stop offset="100%" stop-color="#10b981" stop-opacity="0"/>
    </radialGradient>
    <filter id="blur" x="-20%" y="-20%" width="140%" height="140%">
      <feGaussianBlur stdDeviation="28"/>
    </filter>
    <clipPath id="clip"><rect width="640" height="360"/></clipPath>
  </defs>
  <rect width="640" height="360" fill="url(#bg)"/>
  <rect width="640" height="360" fill="url(#glow)"/>
  <ellipse cx="570" cy="90" rx="160" ry="120" fill="#10b981" fill-opacity="0.08" filter="url(#blur)" clip-path="url(#clip)"/>
  <rect x="488" y="140" width="18" height="80" rx="4" fill="#10b981" fill-opacity="0.2" stroke="#10b981" stroke-width="1" stroke-opacity="0.4"/>
  <rect x="514" y="110" width="18" height="110" rx="4" fill="#10b981" fill-opacity="0.25" stroke="#10b981" stroke-width="1" stroke-opacity="0.45"/>
  <rect x="540" y="80" width="18" height="140" rx="4" fill="#10b981" fill-opacity="0.3" stroke="#10b981" stroke-width="1" stroke-opacity="0.5"/>
  <rect x="566" y="56" width="18" height="164" rx="4" fill="url(#accent)" fill-opacity="0.45" stroke="#84cc16" stroke-width="1" stroke-opacity="0.6"/>
  <circle cx="497" cy="138" r="4" fill="#10b981" fill-opacity="0.7"/>
  <circle cx="523" cy="108" r="4" fill="#10b981" fill-opacity="0.75"/>
  <circle cx="549" cy="78" r="4" fill="#84cc16" fill-opacity="0.8"/>
  <circle cx="575" cy="54" r="5" fill="#84cc16" fill-opacity="0.9"/>
  <polyline points="497,138 523,108 549,78 575,54" fill="none" stroke="url(#accent)" stroke-width="2" stroke-linecap="round" stroke-linejoin="round" stroke-opacity="0.6" stroke-dasharray="5 3"/>
  <rect x="48" y="60" width="4" height="240" rx="2" fill="url(#accent)" fill-opacity="0.35"/>
  <rect x="62" y="68" width="130" height="22" rx="11" fill="#10b981" fill-opacity="0.1" stroke="#10b981" stroke-width="0.75" stroke-opacity="0.4"/>
  <text x="127" y="83" text-anchor="middle" font-family="ui-sans-serif,system-ui,sans-serif" font-size="10" font-weight="600" letter-spacing="2" fill="#6ee7b7" fill-opacity="0.9">OPERATIONAL DATA</text>
  <text x="62" y="148" font-family="ui-sans-serif,system-ui,sans-serif" font-size="48" font-weight="800" fill="url(#titleGrad)" letter-spacing="-1">Unlock AI</text>
  <text x="62" y="206" font-family="ui-sans-serif,system-ui,sans-serif" font-size="48" font-weight="800" fill="url(#titleGrad)" letter-spacing="-1">Value</text>
  <rect x="62" y="214" width="140" height="4" rx="2" fill="url(#accent)" fill-opacity="0.7"/>
  <text x="62" y="250" font-family="ui-sans-serif,system-ui,sans-serif" font-size="20" font-weight="400" fill="#94a3b8">from what you already have</text>
  <text x="62" y="320" font-family="ui-sans-serif,system-ui,sans-serif" font-size="11" font-weight="600" letter-spacing="2.5" fill="#10b981" fill-opacity="0.55">TEAMBOTICS</text>
  <rect x="48" y="335" width="544" height="1" rx="0.5" fill="url(#accent)" fill-opacity="0.12"/>
</svg>
